<mxfile modified="2021-09-13T09:14:40.933Z" host="app.diagrams.net" agent="5.0 (Windows NT 10.0; Win64; x64) AppleWebKit/537.36 (KHTML, like Gecko) Chrome/93.0.4577.63 Safari/537.36" etag="tqkBd7nOsbz2ibT3Nuj1" version="15.2.1" type="github">
  <diagram id="f106602c-feb2-e66a-4537-3a34d633f6aa" name="Page-1">
    <mxGraphModel dx="2062" dy="1122" grid="1" gridSize="10" guides="1" tooltips="1" connect="1" arrows="1" fold="1" page="1" pageScale="1" pageWidth="1169" pageHeight="827" background="none" math="0" shadow="0">
      <root>
        <mxCell id="0" />
        <mxCell id="1" parent="0" />
        <mxCell id="x5Km6dhvppm58IAZ92xZ-1008" value="" style="rounded=1;whiteSpace=wrap;html=1;" vertex="1" parent="1">
          <mxGeometry x="380" y="105" width="440" height="350" as="geometry" />
        </mxCell>
        <mxCell id="x5Km6dhvppm58IAZ92xZ-1012" style="edgeStyle=orthogonalEdgeStyle;rounded=0;orthogonalLoop=1;jettySize=auto;html=1;exitX=1;exitY=0.5;exitDx=0;exitDy=0;" edge="1" parent="1" source="x5Km6dhvppm58IAZ92xZ-1009" target="x5Km6dhvppm58IAZ92xZ-1011">
          <mxGeometry relative="1" as="geometry" />
        </mxCell>
        <mxCell id="x5Km6dhvppm58IAZ92xZ-1009" value="Load Balancer (L4)" style="rounded=1;whiteSpace=wrap;html=1;" vertex="1" parent="1">
          <mxGeometry x="210" y="250" width="120" height="60" as="geometry" />
        </mxCell>
        <mxCell id="x5Km6dhvppm58IAZ92xZ-1010" value="" style="sketch=0;aspect=fixed;html=1;points=[];align=center;image;fontSize=12;image=img/lib/mscae/Kubernetes.svg;" vertex="1" parent="1">
          <mxGeometry x="782.5" y="420" width="37.5" height="36" as="geometry" />
        </mxCell>
        <mxCell id="x5Km6dhvppm58IAZ92xZ-1015" style="edgeStyle=orthogonalEdgeStyle;rounded=0;orthogonalLoop=1;jettySize=auto;html=1;exitX=0.5;exitY=1;exitDx=0;exitDy=0;entryX=0.5;entryY=0;entryDx=0;entryDy=0;dashed=1;endArrow=none;endFill=0;" edge="1" parent="1" source="x5Km6dhvppm58IAZ92xZ-1011" target="x5Km6dhvppm58IAZ92xZ-1013">
          <mxGeometry relative="1" as="geometry" />
        </mxCell>
        <mxCell id="x5Km6dhvppm58IAZ92xZ-1035" style="edgeStyle=orthogonalEdgeStyle;rounded=0;orthogonalLoop=1;jettySize=auto;html=1;exitX=1;exitY=0.5;exitDx=0;exitDy=0;entryX=0;entryY=0.5;entryDx=0;entryDy=0;startArrow=none;startFill=0;endArrow=classic;endFill=1;jumpStyle=line;jumpSize=11;" edge="1" parent="1" source="x5Km6dhvppm58IAZ92xZ-1011" target="x5Km6dhvppm58IAZ92xZ-1031">
          <mxGeometry relative="1" as="geometry" />
        </mxCell>
        <mxCell id="x5Km6dhvppm58IAZ92xZ-1040" style="edgeStyle=orthogonalEdgeStyle;rounded=0;jumpStyle=arc;jumpSize=11;orthogonalLoop=1;jettySize=auto;html=1;exitX=1;exitY=0.5;exitDx=0;exitDy=0;entryX=0;entryY=0.5;entryDx=0;entryDy=0;startArrow=none;startFill=0;endArrow=classic;endFill=1;" edge="1" parent="1" source="x5Km6dhvppm58IAZ92xZ-1011" target="x5Km6dhvppm58IAZ92xZ-1036">
          <mxGeometry relative="1" as="geometry" />
        </mxCell>
        <mxCell id="x5Km6dhvppm58IAZ92xZ-1011" value="Ingress Nginx (L7)" style="rounded=1;whiteSpace=wrap;html=1;" vertex="1" parent="1">
          <mxGeometry x="420" y="250" width="120" height="60" as="geometry" />
        </mxCell>
        <mxCell id="x5Km6dhvppm58IAZ92xZ-1013" value="Ingress Resources" style="rounded=1;whiteSpace=wrap;html=1;" vertex="1" parent="1">
          <mxGeometry x="420" y="340" width="120" height="60" as="geometry" />
        </mxCell>
        <mxCell id="x5Km6dhvppm58IAZ92xZ-1014" value="" style="sketch=0;html=1;dashed=0;whitespace=wrap;fillColor=#2875E2;strokeColor=#ffffff;points=[[0.005,0.63,0],[0.1,0.2,0],[0.9,0.2,0],[0.5,0,0],[0.995,0.63,0],[0.72,0.99,0],[0.5,1,0],[0.28,0.99,0]];shape=mxgraph.kubernetes.icon;prIcon=ing" vertex="1" parent="1">
          <mxGeometry x="520" y="380" width="30" height="40" as="geometry" />
        </mxCell>
        <mxCell id="x5Km6dhvppm58IAZ92xZ-1020" style="edgeStyle=orthogonalEdgeStyle;rounded=0;orthogonalLoop=1;jettySize=auto;html=1;exitX=1;exitY=0.5;exitDx=0;exitDy=0;entryX=0;entryY=0.5;entryDx=0;entryDy=0;endArrow=classic;endFill=1;" edge="1" parent="1" source="x5Km6dhvppm58IAZ92xZ-1018" target="x5Km6dhvppm58IAZ92xZ-1019">
          <mxGeometry relative="1" as="geometry" />
        </mxCell>
        <mxCell id="x5Km6dhvppm58IAZ92xZ-1018" value="willpxxr.com" style="rounded=1;whiteSpace=wrap;html=1;" vertex="1" parent="1">
          <mxGeometry x="50" y="170" width="120" height="60" as="geometry" />
        </mxCell>
        <mxCell id="x5Km6dhvppm58IAZ92xZ-1022" style="edgeStyle=orthogonalEdgeStyle;rounded=0;orthogonalLoop=1;jettySize=auto;html=1;exitX=1;exitY=0.5;exitDx=0;exitDy=0;endArrow=none;endFill=0;startArrow=classic;startFill=1;" edge="1" parent="1" source="x5Km6dhvppm58IAZ92xZ-1019" target="x5Km6dhvppm58IAZ92xZ-1021">
          <mxGeometry relative="1" as="geometry" />
        </mxCell>
        <mxCell id="x5Km6dhvppm58IAZ92xZ-1019" value="DNS Zone" style="rounded=1;whiteSpace=wrap;html=1;" vertex="1" parent="1">
          <mxGeometry x="210" y="170" width="120" height="60" as="geometry" />
        </mxCell>
        <mxCell id="x5Km6dhvppm58IAZ92xZ-1023" style="edgeStyle=orthogonalEdgeStyle;rounded=0;orthogonalLoop=1;jettySize=auto;html=1;exitX=1;exitY=0.5;exitDx=0;exitDy=0;entryX=1;entryY=0.5;entryDx=0;entryDy=0;endArrow=none;endFill=0;dashed=1;jumpStyle=arc;" edge="1" parent="1" source="x5Km6dhvppm58IAZ92xZ-1021" target="x5Km6dhvppm58IAZ92xZ-1013">
          <mxGeometry relative="1" as="geometry" />
        </mxCell>
        <mxCell id="x5Km6dhvppm58IAZ92xZ-1021" value="External DNS" style="rounded=1;whiteSpace=wrap;html=1;" vertex="1" parent="1">
          <mxGeometry x="420" y="170" width="120" height="60" as="geometry" />
        </mxCell>
        <mxCell id="x5Km6dhvppm58IAZ92xZ-1024" value="" style="sketch=0;aspect=fixed;html=1;points=[];align=center;image;fontSize=12;image=img/lib/mscae/DNS.svg;" vertex="1" parent="1">
          <mxGeometry x="310" y="210" width="30" height="30" as="geometry" />
        </mxCell>
        <mxCell id="x5Km6dhvppm58IAZ92xZ-1026" value="" style="shape=image;verticalLabelPosition=bottom;labelBackgroundColor=#ffffff;verticalAlign=top;aspect=fixed;imageAspect=0;image=https://github.com/kubernetes-sigs/external-dns/raw/master/img/external-dns.png;" vertex="1" parent="1">
          <mxGeometry x="515" y="205" width="40" height="40" as="geometry" />
        </mxCell>
        <mxCell id="x5Km6dhvppm58IAZ92xZ-1030" value="" style="shape=image;verticalLabelPosition=bottom;labelBackgroundColor=#ffffff;verticalAlign=top;aspect=fixed;imageAspect=0;image=data:image/png,iVBORw0KGgoAAAANSUhEUgAAAQQAAAEECAYAAADOCEoKAAAAAXNSR0IArs4c6QAAIABJREFUeF7tvQecXVW1P/7d5Zxz752ZNEhCDyUUH0WxoKgUQQEpgtTQBKRj7/5/Pp/tvWfFgk9FBJQaOlEQEQhdRXnKoyi9JoEYQtrMLeecvff6f9a+MzhGkkkyc+fcmbv3++TziDn3nH3WXvt71l7luwTCCBIIEggS6JeACJIIEggSCBIYkEAAhKALQQJBAq9KIABCUIYggSCBAAhBB4IEggT+VQLBQghaESQQJBAshKADQQJBAsFCCDoQJBAksBoJhCNDUI8ggSCBcGQIOhAkECQQjgxBB4IEggTCkSHoQJBAkMCaSCD4ENZESuGaIIEOkUAAhA5Z6PCaQQJrIoEACGsipXBNkECHSCAAQocs9Ope87Q7z6ZqPcdl7/180IcO14egAB2sAK+77nh6YtHzsDaFVIAgiU0rG+C5E64PetGhehEWvgMXfu9ffpJ+/8LDQFpHPTKIyjGszeFgIFFCparx1g23x9xj/yfoR4fpR1jwDlrw4+78Kl331O9Qb/QhiiJkZAGlIK2DyzNAOiDWAAFICYlO8N4t34o5+34z6EmH6ElY6A5Z6C0vnkXP9c6HUxmgCDACca6QlSOgr46kVIGOJKq1FUAkIJMErl4FTAnrd0/F4TN3x7l7fCboyzjXl7DA43yBt5t9JP19yWIszapAOYKSAlFuYImQRwRFEWyeA05Aag2hJGyeQcIhiWLUQSgjQlZPsdGUTTDvhKuDzoxjnQmLO04X9+DrPk23zvsLal29gCOANGAUlAGUAJyyMJQDOdDVMwEpWZjMAFHUvD7PIaWCYmhQDpAEay2ki7DLRjvhvvf/KOjOONSdsKjjbFFPuP2/6cZn/4hX3HLApIizHJmC9w1IGUOmprmxtYbUChE0amkN8P4ECQjR/0cDApCG4BxbEAa6VIJTCm55HdOT9bDrjO0x56Czgw6NIx0KizmOFnPHnx9Nj1WfR654AxM0JIwoQzsHDQcrchgQhNQgIUG5BUgAWkFHAKyB4D9Ceb9izpaCElBKwzmAcgcpBTQIuXIgbTGZNsTSU28IejRO9Cgs5DhYyL2uPZ3unfcIssQ2v+4Eb+47SxB+a7duKBXBZCm2mroFnp41O+hT60Q9KncOCzgqYm7NQ46d+1W687H78PfGcpiEIMsRKE2hnYSUEql1EHxcaOEgyjEx7kHWMKhbh7duvjP+eMgPg161UOatvHVYuFZKt0X3/vRdP6TLn74Zi1e8iEzEQKyASEEYA9nIoWXkfQapYwvBtWgWzdt2CYk+k/qjhYwq3iqpiC7M2vztuHDffw/61VLpj/zNw4KNvExbeseZF8+ip6svItESDdNAEpVgnIU1mT8qREJ6H0AGC/YKitaeGKDIQfAxxRGICIYdk1JCqTLWiytYdMKvgo61VCNG9uZhsUZWni272/5zPkG3vPxnGFP1OQMARwHK0FnNRxQtBwcUb0QFawlkOL4YQVBrLQQiByUin7eQMwg5QmwFjARcSaM7K2OzyRvib8dcHHStZdoxcjcOizRysmzJnU75zVfolwsewMt9832OgJIO0gpEMkJdK8gshYoiWEGwJm+mHbumpRBLhZq3FFo3lIxhOOXZOURW+MhlLgjOWHQ5iT6ZAzKGiMrYbaOdcPcBIUzZutUY/p0DIAxfhi27wwbnH0YL8xcQu9hbAJZDgFYgNhYZDKzm5WPTQPqjAXFsUAgoIX12MhkLE8mWzY9vTNZ5q4QBwTH2qGYks4lMA+rFZxntrYey6sEJM/fCue/6bNC9lq7Mut08LMq6ya2lv9rxilPp4Zf/BhlbCEewziISkT+rZ3wE4FRD3nu5g01KQJpDE+cLKJ9nYAWHH5tTFK09MfgcB6clLJsGzkFyCrQjPw92dEojEUmCy+p+fk4qZHXCdutthcdOuDToX0s1ae1vHhZk7WXWsl+897qz6Na/PwTDiUWcQ1izsPH4XqId1p+Jh48M/oWWKdVa3nh8a9taCqOoyz9489fpumfvxbJ8CcoSUJZQVwK2qwRRT4ua1qg8t7uhIaMydtl4B9x6aPAvjIrQV/OQAAgFrsBn7vwRXf7Mb9GbVbHCNgDdb+obTiMW3nlIcYETHIVHk1BQUsIag8lRD9631a64aO8vBb0cBdm/1iOC4AsS/BuvPoUeXfokGiIDMgNhuCBRgrjaUAoI47ylwM7E8Tw4bOmJWTijUmjIXGPLaEMcte3e+K/dTxvnb99+KxsEPsprst/1n6fb5t8PQ71AySFOFQw7CZUG/58yDsZkvngIJQ3Gi3E9Is6ZsJAkoUnBWK6udJiQ9GDGpOl4+OjgeBzN9Q+AMErS/tBvv0mz592OJfkrno2InALVueSY/YecWeSARupjdglzHIomMAjBZYjjdxAa0DaCMgoph1FjhkUHSxkosujOpmCf9XfEdUcE/8JoaEEAhFGQ8g6XnESPLHkUMrG+GNGmGQRVIOMKrKkBnCvAm0Eq6NQCnD/AccNIQnBuwTgenEBlOI+Cw6gOyKQBmH+BCBNFjCqzvZUSTJETcfC0nfHzA4J/oZXqEAChhdLd/bLP0t19t0EYBYEITvIGZz4Bzj52nDEAn/TrOO3XNHMHFKckc6ESJxtJEGf6jeNBxJWZAo7YiZJ5EpcYmqkZmMwJCnWfhYmELYcE/xZtgodOvDzobYt0Igi2BYI98uYv0a9fuANVsRQi72nBEzrnliSY6EXBuhzExysVQWUa+268E2465JygvyOsCkGgIyjQj/3+e3Tlc7/DwuULAeOQOIksGt8m/wiK7zVvRXCIhYbKjY++2CRGljskmcD00mTsMfNNuOTd/xH0eIQWIghyhAT5uis/QI8ufxxwTFDCJGNlWFmCcNURekJn3oaUQkSAyDNfMCUiDRtpz7vAjtguaTEpWR/HbP1efHuPjwR9HqaaBAEOU4DvuPZ0+suS51FPX4HQGj0WqOcZcske87jltQTDnH7b/5y4UoortbhWgolgPQ8ku1piSBUhR+6rLHMH7Dh1Jh4+4udBp4exqkF46yi8Wb/+D7rl2b9gSfIySpmEtBo1riSSBJUkiCWhnlYhaHyHDddRfGv8M+UkDEceItWMxGQWMrPNXjPOgVQFiC1gOWHDQcky9p32Ztx06PeDbq+xlP9xYRDaWgrt03efQxc/fQcW1RahZDjDTiJ3FqQkKFaeNch/xdh1QAShW1t+vJbTH3OXJyJC5rjvJNM+N6uqI6aME2wVcGQmRg+kp5K30kHpkqeZn5pMx8EbvB7nH/iVoONrsepBWGshrO2vPon+uuhJSGdQjjSq0kLYCMSfqzxFxD0S2fHFrZRlhIkUYwXV1+IJ4dKVJcAcD4obxhBXVzMskC+39iFa/28SrpH5UKUrJcgVQRoLDYEsstg02hTHbPlOfHO3jwZdXwP1CkJaAyEdcu3n6eb596Oh6ohiCcMhMMtmq4JVHBaLvXIaKX1fRK5DIG6eqjmXoMW0x2sw/7F8iRefL3doMkkze5xjJhZrUZYaucu5IRVQSrxlJtIMJAVUrHzBFMggQjfesP6OuP+oHwd9H0IZgoBWI6BTb/s6XfTszc0vE59X+TgQxpiSgPdBcMWoS1G2Cfbb+I24PuQvrHINAyC8hmi+ePeP6ZK/zsXCvkUwE5qmKoMB//EMw2GMGQlQnCCuNdiGQ5pI796ZrKZg1ox34if7fS4s5korGQSykkBef8kH6ZG+55EoQkapZzDmMWAdBEAYM1jQXLeMY5RcQMbhy6bfQeQKPXEZE5JuzD9hTtgDg5Y0CKNfGAf/8vP0y/n3g+uNJXK4vAHJCTCDwoYBDMYWGPBsec0cB3oEE84QtDEe3HNNQCw9/8KbJm+H+2ddEPbCIFrcsbfSIzTjU2/+Kt0w/wEsrC5ElGgwnzHblZGKfTmuMK/tNwgWwwgtQItv41vZZcbnNImIu1z54mqILEOUOd8Cj2mp4ngS3rPxm3HD/l/taGDo6Jff5KJDaEG+HNRXhypJSC2Q99V8hiFKFaC3AcFRg0F+gwFfwsDXp8X6HG4/TAmQzRAnJU/A0mhk8FzxSeyzSjlSxG0rhOZQZQZLFutP3AjHbbkPvv/OzgxTdiQgvOmqM+jPSx7xHIaiAUitYH35LWuHQtlxDwGBeuQ8DfrA5g9gMMzdWcDPidmoDJNTkaeBTxVgOKOUE8d8Q5sExtZBKoVikMgdXCPC66dujwePP7/j9kdHvfBRc79A1z91DzKXomQ1awYM733F9fiEiJrWQMbAAKDsq/Hzf7EQBgCCrw2hyAJ2+Vo8MqbEc004kb/apILXmTtkMyFLn3aQpLwFYXk9OeeJLKSwsMrhwMn748YjOifbsSMA4Qt3fY8ueeJOvGAWexIO/voLGff3FgrlyWuxvzruUtIpJmAC3rfFnrj0PeOfrWncA8KOl32Anlu+CL3UC5EoxCYH18owRVlOFoLbkIURJLAKCXC9Sq4kDBSmTdgIi46/clzvmXH7cu/5zSfozsd/j7wkAcsNRzWYuU9weisXIkVNv4GwARACGqxaAlLFoKwBrQhGE5xV2H7KtvjrUb8Yl3tn3L3UB2//Nt30xN1YnC+G6TKITeR7DTKXYcZ9Er0nSfsyZWTsHwjlyQEQVi0BMs5XrEZZ3Vdgp+UYps7FbVPx9k12wNwDvzOu9tC4eRkuS77y2Xsxb8WCZkaa4i7JAlneByUjxCqG4ZQj3/2UHYgSiXWocoJKGEECq5AAR6B8Z23hYLncOrOYIMu+4rIPKTakDbDPlm/CRft+cVzspXHxErvMPp3+9PIjTaIMLSAzQmJjZOw5TnLfGMgzGBMz9DEecPkcdyVWvnIxjCCBVUmAjwsqLsNy+Jl1plSCrTfg0hpKiYJQZdQzg03L0zHv1OvH/H4a0y9w6NWfouuW/QVdDQdOQKmpFFAKSmjfCEWBOf+bUQRyBkLymkpfU+/DhYIjUYHAJMDBqiXQIyKs4OxVpb3FaRopHBPnlhIIa0FpA+WkC3VWIwvsPHk7PDBr7OYvjElA+NCNX6dfLbwP8+xLkExOxG+hIkRM150bbn7UJC2hHLIRgxIFUtwAJIPilmGWAYEbo2jkoXox4MFqJED81eAmEb5AqpnMxC3nQBqGLJSynndBkUCsE9QNIXJlHLzJLrjm0P8ec/trTE34S/ewn+AePFZ/0cOxMD5BPSh0kEBhEmBLk61Ob4VyiTx32hICWmv/54Qt9sdP9/rMmNlnY2aiu1z1IfrT0seAvM/XZMXc4QhAzv6AMIIECpLAAEfGQNbqQOYqgwT/ifs0NuyZimO23Qtf2+OMtt9vbT/Bfa7/MP1t8XOYX18MlIRv2uGyHIZN/khBcJPUNh4DhVEhxbmNF2kYUxsMCK9aCYOYtSItkbDjMXXYecpM/O/R57X1nmvbyX327h/QVc/ci+foJaCPm584KCWQ+hkLSFlCAo0GpcNYztb/dHWAEBiYWi//Vj9hVWvoPwAeGNh3ZaFVAidiJFE3Dtvsbbh03/bsNtWWgLDTRSfSQ71PAK4KGXVDwPkCo2aIkOsQFCIr4eoGthIyDVut9OH+Q0tgVfwY7H8sOYGc+0YoCU0R0sxixuTNcPjmu+DsPT7VVnuwrSazx+wz6O6+J0HMWmT76bZrzZ5+XLpKZJuMuxwZ0E0gYIbjMIIEipbAyoAwYBm6nIDuBKhXIbMcqrvsq+xdaiG6Ktiusg3+esxP22YftsVETrjt63Tdc/egN18CwRTn7ChUCSJRAiSQ5/3JQwwCPm2s2QhFMWhwy7Q2HoN9B4GCrY0XaoSmNvgIMUDfVm4029HVNR8fHER/XY1NDaA1ECXYY8OdcddB3y1cmQufwPRLDqKlS5cgoxzoigBHiHPy+QINdhhGxK05fM6AcgKasYFrEiLp+fhFwVGGtXUWDgaFwKcw9C4cSr5Fg+yqogzeehUCJZKos25zxEEo5JzMxAlyih3iBEFVuCiGczEmi6lYenqx2Y6FAsKEC/el3kbv0FpR4BXMyee44QezaRiFktEQSYw6d3WOgKluCjadsgG2XW8GZu/9r0Qan7jnHJpfexlPrHgRz/ctwrL6EiYE98VV7BuJM41cJSDJqdUWYOYebleWazhRQi65Z+H4HcoKGG7vbHIkpTLSLIdMM1TiGH0yhRAJulDCjK4NsMO0rXDlvv/5Lzp72K1fpkdefhzzls1H6hpgs9LJCCQ0Ypci41NlxC3lHUREMMyOpWOoBsGxsAscFBHKNYUsErDaoqsuUf3YvYXty8Ie/KEbvkY/fuk2rwjtPHijTiCFPqrDxQolKqOxrIY3b/Jv+N+jL1wn+R3/m6/QPS8/ied6/w6Ul0E2VPNMWSr7tGvjUiARUFn6T6zP7SyndZ0bJQRd49RyCcvsRcrAMWV6pjHZTcRBG++Ciw9Zc8aivX/9cbp3wUNI8xVQDLi6hDrXISgFbSWiRoa6yoFyyYN7yl/vAgfX31ZcgoZwcJqgUovdNn4j7jysmC5T66TQIyG/nc6dRQ/JeatkNR6JZ4zEPbobEr3dBKR1lEQZ03qm4YUTRs6se+ulJ9GD9ReQiRRR3SEltkBKIFMFJHeProzEa7TtPQh1KNkFhQQ2q0JoJjwjbL/eG/DXo9YNcPll33jREfRI/XlkfGaH9hYYLCFx/CVmwhOLyFKz/V6Bg48PJYrQyDPuW+vz8CumC9WP3lrI3izkoSz/rS87lp7se6rtCUoqmUW1oqFLk7Bf9za48dDvtURmW11wCD294mnochdkJkAqgpaq7fMshruXNFtBE3pgswxchyaNw0FbvB1zRsDBtt81n6WbF97ly927dIxqmgJdFSRCI+vtBTGJrt+FxQ0mgdVOwdgMkRS+PD8prYf0pJtaomdDvWkhD+VJbXv1ifTkwkdAqtgFGUpAlBggT3DYhnvi2oO/1lJ5nXjvf9JVj96CWl6FtAoxKkjV+PYhcEla5uoAVxDKMvac9mbcefDIge4Bv/wY3TTvzwD3X6hnoFIJMGyaZ7A9EiIr2EJoNoyAFITYOTScQdekDVE9/lct1bVV6X0hD+XJbHHRUTS/71kY0axJaNdBKsehm+6N6/b/xqjJar0L9qNXGot9hZ1w7Q2Yw103Mgqii0CNKl7fvR0ePGH2iMt5u9kn0mNL/8YBK1+lmLN3P1Kg2HGjrkKHjziQgnM5lI+qKWjZg/T0W0ZcDmvyooU8lCe2+YVH0fx8/qu9E9dkskVcs13P5nj0+MtHXU6bXnYYLeid73kdxvNgTpu0W6O7UULfma3bBBPOezetMMtRRoSUJFisvlq24DwWTrhDzpEPthQsojiGyitofKh1slidPo26og9MZtvLT6DHe5+AsIVNYY32GZ31+8ImOOmn+9Jy295h2TUS4mouIqoDshsHT3sHfnlY66yw/WafTDeveMCTGihKPIdBt1Oo6mYPjqIGF+dJ3gOVBMa3EXSYoKZgxRkd5kPY4tIj6fnl8z2ZSZGDwLTsEVzcbNhBViCOMqR5HXtO3h13HvujYmf4s92olAINzoMgghackEUQRiBi94Ye26nbFDWgaj2wH7ur5XJWP9qTHKoQTsElGqAGhC32SMZcjcLEIN2AdNrvBw6Vpqfd3nJ5vNa+K+Sh3ofQLoAgDCKXIJd5s88fO3hkAwzan9jxA/jeOz5SmIxeXbAfvpOg2QutkNc5Z1sDCcfU6zC6WIUeLpiTTDGzsjWe+sAVLZfzZhcdRgur85Fz1744hpYG1rT8sasVUQCEfvG0DSBo8lmBRuS+r5+IKyCqoqwrqJ/W+q/WmmyoQ3/973T9vLmIhQUoQZo56ETCOs7oSdbkFm17DbkMB265F27c/1st35l7Xn8W/XHBA6hzzy7BURxXOIVeAIR2AwTloDLlU1q9c0cnANWwfjwFi0+5ueVKuqY7dbcrTqE/LH0MplFFsv5kpIuXAqUIgto7SjPU+5GxOGvnI/Hj3VpfBnz8rV+iax6/DXWm3ufejsZ4OvUiRwCEtgMEAdQNdFn7pJiMCxRkjs0rG+C5EcxIHAml2/bCY+jxxpMQikA6gq4qn+47loevTfvw6Dlu43N2paxEkC4Gcdp8wVGGAAhtBgjMe2cbBigTSoYrLJmaDdhm0qZ44uj26+O3+XkH0XP1Z6ErkyAaCobz8sfwIEvAR/4wapaY+P6bifMPIEqQaHJsFDkCILQZIESkkPGZUqeIjIBzEaw02Hq9LfDkrNY7utZFGSef+16q5b1ImXlajdpeWpepDvkbz1L84ftG7SWagGChXAlWKl9xWuQIgNBmgBDnAnklhqNeRLmEFCWktg9brLcVnj3m6lFT1LVRyo/dcw794OErgdhAZGM7cYmrj82HRufI8Knf/Q/9zwOXwiSEqCHQkMJzFhQ5AiC0GSDwgkgXwUlOHSVYFUEgw8yeGXjyuPYEBBbhB+d8mS5ccDPKuUG9VOZONZ6zIbYNRFyQpcuA1RBtXgvBeSA46/7R25U/fBtx928hFBxlEL4DS3EjAEIAhBHTvr2uPpNuX/YXJFWBNImA1EA6AzchRpQ5WOahbHOa+gAIITHJb4i2yUMYoxbCAKpsO/twenzpQihuDFLNEXd3o2pqQMzVfcwv0DViANSKGwVACIAQAGGEd9aEnx1IK8QSRBmB+WiliuEiA+WytmdcCoAQACEAwggDAt8uOm9PymmFL+8FMV8g03xzEU/B9b1DvGsAhAAIARBaAAifufs79O0n5jQ7BdUIkjMuM+dr/tt5BEAIgBAAoUU7dNbcr9EVD96ISlmjlmioqoXjKsk2HgEQAiAEQGjhBt1tzkfonpf/D1i+HFhvAgRXR7bxCIAQAMGr5+aXHEHzel+E4yzBAsdYzUNYnch2uPCD9Ej6OBJkSF0MLpDmvphOcYvyGJo7XiGHiSyEiQqUPtOfhjyEZtZkDYoivx+UiGDOLKbSdvQSQlZSuxkXH04vrFjQFsUlYzExaahdPOMnB9PzeAky14higdRlvntQGWXUq1WgEkHZ3Dc0KXJ0PCDAQroSnKhCicTvBy3jziNI2fKyozwg2KJbsY3xPITVbebKT/enmlgBZBkQS98w1y5roNw9ARkcZJ7DFFv9GywE4Zp1FeiDZFuOGxuLCPkZdxbysS7koazEbCEwhRqnkRY5xuOR4Z/kee5uTAwHlTY8PVeuOW03AazzfxfcPLfA0ekWArf0kzZ5FRB4TdhC6DhA2ObKY+mZJc8HC6HFm/GYuV+kyx+ci6Q7AqU1ZCUFcM8HK5Exn1/RPpxO9yHAQlEZlo8MiD1IJ1EZ9VNuK+RjXchDeQ/MnH00PbX42WAhtBgQ+PbvnvNJum3Bn6C1gLEN3348zrx5wK7FUZjBqh/R6RYC93b0gDDIqViKK50HCNtedZwHhBBlGJ39+LrzZtFj2XzoWCKv1gAlEenI91EscnQ8IAgHTWUY9iH0RxkYEBqnzi3kY13IQ1kBt77iGA8I7UBhNR6jDK+1yTf4xfvo78sWoitK0OeZlshTkhc5Oh4QBkUZBpyKDAi1kzus2etWl8+iZ5a9UKQu+mePe6fiShJe79x9aalZBFIKQnTBKetTnAEHrRWsaYCshUwqHIcANxJp5eh0QGC5S/pHHgJH3TrSQgiA0MptNsS9z92NJCcqMTmINdA6AXNLZrVeqHKCOI5RX1aFLJVBLfYxBEAIgOC1NQBCcYAw65av0BXz7gbqvYhVjCxNEcdl5M6BpICMNFy1jopOUOcGNi0cARACIARAaOEGW9Nb737Dx+h3z9/nW5p5OnJSKKsS6kyo4BxkrBEbi1S21ukYACEAQgCENd21Lb5u5ytPoAde+hswMQHyDDLl4EOCnP2M3CXK5hDMSd/CEQAhAEIAhBZusLW99czzD6en+l4ASjlgBGKKYMsVWFPnfuktb4YaACEAQgCEtd21Lb5+5rnvp6fsPGjuiFy1MCoBIgFh2X/Q2tTyAAgBEAIgrLTBp/3kKFp0ZnFdoj76u+/TuX+7HhnVEGURciOgEg2ZpTBRAITW4nEAhAAIK2lY+ZJ3UZQBK06+o7BEseNu/ApdPv92gDLIWgPo7obhStTc+pAk/yEiX3vCVZM8rDUQYniAESyEAAgBEFYChKmX7UNLXl6CrdffFo8dd1lhoLDHnE/SXQt+DymMb2uXRgm05PZ2zv/hwZ2OBrodMUAMdwRACIAQAGGlXdT9i72ob2kvECd4y9Rtcf+RFxQGCttceTw9tfQx3wmbZKlpBbBFwG3P+ve/s80GqTqKYPv/e12BIQBCAIQACCvtnkkX7UPL+qooxREatWXYZ6v34JYDv10YKEw//yB6xbwCSxnIKgitX50xWwfcDYqbtCqphl2cFgAhAEIAhJUAYdMLD6B5jeUQMEhciobuwazX7Y8r9vh8YaDQc+6+1ItF0KLbz9ZY4xOWoBS01h4UbM7WQ/AhrKt11PxdAIQACCtbCD9/D63orcHpHJp7MyYT4OoAPloMjdbA9NSPdyObp543QejmsYELn5ibUQnZtBSGCVnBQgiAEABh5SjDpftQtqQPLlKANqDlFpXJ3UDqUDurOFA4ce436Jonf4Nqow4Raeg4QpalgCOoKAqAMDzToP/XARACIKykSJPP35uW8pdYKqDWQFyegKzxMjAhwia0LeaffOkwv8Prrrk7/fZEeva559Bbr0ImMRwx7ZrwoUeTZk3LYRgjWAgBELz6hO7P/9hF085/D72cVb35zUcGIxIoYWD5zE45dtpwBzx02MWFgcLrZ59IDy75Pyb7A1IJKQhSasBEsMOshux0QGA+DmFikG5AOu11INalzqNhD4CwZoCgoXzR0W7b7oK5B3y/MFDY5BdH0PzqCxBM5151MEqD656EG14uQgCEAAjBQljJxF6dhaB0F2xaBaTFKdu/D+e/6z8KA4Wun+5L1Wwx4ngChBNIZQ3ChijDME5MnrErWAjhyPBPOrTaI4OKAZFDE7dj08BZ9xb2KIr8AAAgAElEQVQGCH7S57yddCSbx5vMItPDm06wEAIgBAthLSwEPq87ZjGyCkoIJDJB3xm3D28XDuOTdvpd36afPngFJB8dbAmGeROGMQIgBEAIgLAWgJDAwEVdyDNClyVUkxQblKZh4Ym/LgwUDvzNx+jGJ+8G4m4IFwBhGHgYjgwDwgtOxTVzKkpHcEJDRTFstRe6EsEIhR27t8LDxxYXeXjDlR+khxY/4RV6OCNYCMFCCBbCWlgIWpVhLOcoMCm65JwgznZFWVWwy7QtcNdh5xdmKUz/xX60qLZiOHgQmr0Gp2JTf4KFsGYWghCrT/w5ert34/K9vloYKCTn7kaaBKo2hY5iGKZttzkiJADJIX0MwUIIFkIAhLWwEIYChJLtRv0jtxQGCPwq8pzdyMU5JPMmNCzKE6eg7hqIa3XkUbxaCyIAQgCEAAgjCAiUK8RdEbJTios8nDb3G3TeE3N8VmXFllCDACKCdiksAiCsDhFDHkK/dMKRYWSODD1IsEIux8RkKpaf9NvCLIUDbvwk/XbB/RDWIPcNZIVv20lDlEMGCyFYCMFCGEELIeENqLimQGKb7s3wRIEUbG+78nS6b/ED4KxmihKgDyC9+rBkAIQACAEQRhAQSKSYINdD1WSwkcXePTtg7tE/KcxSmHHh++n52nNQRkHqCTCyEXwIq5FAODKEI8O/qMfqUpeHcir6XoxWwnHnpVhAxGUctenuuHzfrxQGCpN++B4yIvMt5wd4GFe1J4KFECyEYCGMoIVQtglqsuZLkolJS9I6ykhQ//AfCgME/3o/24OQ90KgFCyEYCEMnauy+SVH0LzeF4dN0jn0k1Z/BZts0kVwMoeyBKsiCGSY2TMDTx539ahsquFYCJ7WLEuh4xjGWcg48t2XZsRT8OyZxaU3f/Smb9APn/01KM65NosDEEAlQZw5b82YiSWgZgCRAWfdPypy9prww7cR80Cy5eUoY6qX4arQsH7P+qdcCVbWoCjy+0GJCObMu0ZPJoPeoJCH8vNnXHw4vbBigefpK3KMdUCQWsFlBpESyEzG7BpALqH6csycugkeP/n6wgR82A2fpWufuwux1MgiQpwTMstplgm6DFDN6wATOncyIMBCuhKcqEKJxO8HLePOI0jZ8rKjPCBwJ6Aix1gHBBafACGJFBrci1ECIilDNCxQz7H99K3x8LGXFAYKu19xFt39yiPQZQezZBlkzyQ4S0CWoVSOmnPuZEAYsBDQB8k5G1J4CyE/oxguzcIUhS2E55fPHzaN93DBZMwDgmc4FJAgOFgQWe6gAqE0KGO0cNhr0s64/egfFbbWW1xyLD274jGoWEPnCimD1aQEcaOOjBewgwEBkiBtAtsPCJ5nQsadBwjbXHksPbPk+WAhABiOD4GUgiQBlzZ8hyUmL8nz/q7NTJ+eJKAVDZz8b/vigv0KjDycuw8tQx/KMkKdLDR3ociqvs9DJwMCwUJRGZaPDIg98UwSlVE/5bZCALyQh/JHYebso+mpxc8GC2G4gADXLCpKM3CCYDlJfHs17sUouaFKw8BEDoIk3Id+X9h685p3fW9vqsZVgFmWMgOlNSyZAAgMCIOciqW40nmAsO1Vx3lAYK9qkWPMHxn4a6u1l6PLOCuwf88TQcURhHUQmpBThm6ajL4zi/ny8Bp/+O4f0o8fugZwfRBdFbg6gZhBtoOPDKx/msowfGTojzIwIDROnVsIeBfyUFaOra84xgNCiDIM78jApUOpzX0jFZJ8fGh2aLavMhlZwBBKUYxGbrCBXB8Lz7qxsHXf76aP0NyX7kfemwJJD0D1zgaEQVGGAaciA0Lt5FsLWaNCHsqAsNXls+iZZS8UaRz4Z491C2EoAXJb90xraKlAWQNWWcyYuAmeP+7awtZ+t6s+Tvcs+iPKyqDOjEtn/Hn05tJmeQiht2O/BgdA+MdWHo5TcShA4AxGTrZCahBx9aHmRKwY+07bBTcc/p3R24grTXS7C46kx7LnfciUzvzT6M0jAMJqVWb0FmKlaQRAGB1AEDKHY9e1VShrhbqpNcOSyySO3fVAXLrHFwrTgfV+9n56pbYA+FgAhAGnIufldKQPIQDC6ACCpBSWe0bKBJF1yG0GVDQ4AUDmEu6jvysMEFgCE895Ny3/6Cg6OoOFECyE1UlgvPsQ4szAVUrImZ01NVCRhmXeQw79pRm69RT0nVkcBdtZd32HfrzHp0cPlAIgBEDoZEBIjISRgOHwA3FGY7Ocx7ocWktkZDG1vDFePum60duUQzk+WvnvARACIHQyIPiqvqwBEUXNFu5cCBXFPsXZZPVmpmCljNfRdDx68lXjHxQCIARA6GRAIK4mJII2TSozJxVcmkN3VWBchpIhNLj+IYqx24TX454C2ZZaaRi8eu8ACAEQOhkQhtpkpAVUI/dl01YpHL3Brph90LfGr6Xwo12JE7fgBKRyzQhMocNB0j/4EEKUodDFGP+JSUOJV+dAHhPgLGIjUeqeiiO32hPn7/mponfKUFNft38PgBAshGAhrFoCiYjQcEysIiAbDk4pRHIi8jNuCoCwbpCzlr8KFoIXWMhD+IfetDJTcUjtFArkDLhjHDsaKy5GPSNMm7QB/n5ScenNQ857XS/4n7eRkNJXfwppw5FhJTkW9hUIgNAegOAJq8oKqpr6UnTDmXKI0Mgttpm2GZ44dvxEHj73ux/QNx+YjQFAgDAgppgqdAQLIVgIKylgkRYCKYHIokmX7gyykgB3Wule4dCnLHbbeFfcc+j3C/twjORe/ey936dvPTDb80SwUzEAwr9Kt7CFDhZCm1gIkUCyIocpR7B5CpRLgLBANUNcKSNLLWZt9S5csf9/F6YrIwUKHhD+cjlkFPkjA/eECBbCP0u3sEUOgNAmgMAWs5KIckKulO/NyHT0hiMPxqAMoC7LwJn3FKYrIwUIn7nne/RtthACIKxSpIUtcmj22h6AMNRmE6TgRB1KadjT7ytMX4aa55r8+6fuOpvOfuQaTyrVTOA23Mx+TX7asmtCK7d+0QZAGBuAwBtGCItEKKwn18f80+aMWVAIgDA0rhW2uAEQxgYgMDtyXtLAy8uheiZgRmkjPPPBKwrTm6FVetVXBEAYWnqFLWwAhLEBCFICNreISxWIegNpWWPnCTPxwFE/L0x3hlbr174iAMLQkitsUQMgjA1AIGSYhB4skwZwDcQSyEjjkM3ejTkHfK0w/Rlatf/1igAIQ0utsAUNgDBGAEE4xBQjdxYU5VCOoLl3pJyID+y8P859x8cL06Gh1fufrwiAMLTEClvMAAhjAxBKUqNu64goAUoKedZAiQFBx6gLgjvr7sJ0aGj1DoCwtjIqbDEDIIwNQOCOkQoKIlIwfSlkuQQnHUS9CurW6LHT0HtacX0e1kbhg4UwtLQ6HhAE5+w6DadyCO5KLGN/Vt5qwgw8dfw1oyKf6RfsQ4vSPiYkh2YmI5FA+8IbAhVer796JSJXxWZTtsYLx4yOrIZW6RBlGI6MRkXhX2uC7WIhcKMMwS20ZMaNkosFBO7864wHBCWMB4SiE2eGUi4mG0kahDdtuTPuPbi4DtNDzZP/PVgIQ0spAAKctxCILYQCAeHlrOr7M441QJAigU17EUmJA7Z7N+bs0741DwEQAiAMLYFBFgK3VScR+SPDzImb48njrh4VwOQjwz8BAmIoaWGdA5OktvMgpxCXFbJGHyKT4Kw3HIEf7NGekYcACENr0qgo/Jg4Mqgc0jGl2ugDQpHlz0OryOqvEHBsYwEqQqnuYMsx8tPvKEyvVjdbDwgPX+0bDIdahteWVGEL13Y+hJUAYTSdimMZEDRlyEkjEWWkygCmhkld62PZSb8tTLdWBQqfvPM79F0ubgqAsErcLGzR2hkQyNZ9lOHpD4wOhdjUn72bFuc17qMy5nwIRBkq0QTU8hTKt5A0EHXCBtO2xEvHtFfNQwCEoe3BAAgrORX9kcHWseWEGXjmhNHpZvQqIAwKO46VKIMSGsbUoZIYrpZCJSUYLTGpEWGL9TfCA0dfUpiOraz+KwMCV3EWHdYN5c/9q7T5JUfQvN4XvWe9yMFfOOgKlJGwlKGkCQ04VMR6qJ0+OszD6tx9yKoV0LUcTpehoJFrjn40IHynlbE73rfJHvjl+77eFqCw7y8/Qb9ddC9k3UGjhCwWEM57QAobDAjK/aMvA+8HJSKYM+8qRGaFPJSlP+Piw+mFFQv8ea7IwTRakhmBjPC5CCUJNMghoYlIzxqlJqg/2Yug+qAzglMlSCvhuIkI0jEPCCRinLbVfjhvn88Xu9AAtr70KHqy+iTKaYxGKQEyboFd7LQIFtKV4EQVSiR+PlrGSE+7vZCJFfJQBoAtLzvKAwJ3qil0SIKiCIZbncWE2ObIiUlHKzh2m71wyT5faqmMDvrlJ+iGBfcDSBFDIlMa0kj/5bI6H/uAQDXEejKyNog8dP1sb6ra5dB5AhNJKMrgqNiw7qsWAvogEXtAYAshP+POlurdqvZcIQ8dsBCeXz7fU38XOiSzDje7ILN5oBopM2zBiBhb9myEZz7Q2lyEaRceSIvSJVCWLRWJXGsII6CshY2YCbmwJRqRZdEig8iA7spULDn1N4W9zIG//Qzd9PQ9PtxopUZUTZFPdBBZwUcySZA2ge0HBO9YlnHnAcI2Vx5Lzyx5vnALgRegZBUanIQQEWQjg5ISTkRwQoJaSC562m1n03lPXO2fB5P7JCSjm1+sJCNkEddZFLaHRgQQSHCjWQeVGkxbfwbmnTg6jtqVJx9fsCflfSugVQV5KUF5eQ31ibZwQOAjg6IyLB8ZEPtIUxKVUT/ltkIWvpCH8mLNnH00PbX42cItBPYyxwAyReB0FZFbkJJQQsK4BqZXtsDfT2qNlTD5ZwfR0nwhIhUj501DHLbzDKCImflYcjelwpZoZABB8bnYIElzGAdM7dkAC08aXV7GN845jf7y0v1QNoZ1CkkUwZFBzlWbBQPuq4Aga/7oyk7FUlzpPEDY9qrjPCAUH2UQ0CAYDUQ5fGsvG/Mxgt2NOSATvHPCtrj3mPNHdGe+9cqT6Y+LHwSkRGQ5qiChDR8hCZkyiJwE9xVq9+KmoVBDO4ecJFBh34gDpSkm9ayPpSeNzvHh8Bs/R9c8dzuUJkhZQZ4bxM7CxApkVLMHRYGDfQiayjB8ZBgECI1T546ovq3pKxbyUJ7c1lcc4wGhcC8vCXDLDqcd4gZAOkYeA1Fq4BQhsjkaSQ8OmrQLbjjimyMir3df8Um6bfF9iEQKISPYhoPtLkGnBP5G1FXuOQjGQi3DUIrWTSl6oSBlD1TWAOIMuWBn6QQcOPXNuOHw746ITF9rHsdc/mW6/JVbIHUKZRxsNAGOowqGPfoSwnK4Lx/qFVr674OjDANORbYQaiff2jK5rO6FCnkoT2iLq46jRfMfQiPqAZfQ8kQYLRm0oTgGD//FtKJYpyNJzlNQQAPYZ8Odccth5w5LZm+58kS6/+VHgZJGXM+QK/Ycdu6YEvXgfdu8HT/fY2SjObtecwL9YeEDELK7YOE29dc31GWXplLeKnaOe0IAQjVA6PJ+hMhmaIgViHumIPtAMfUgw1Lu4Uh6q4tm0XzzAlIdA711/oYAUQyXG5QNC0qhKgwKxgOUUoM8ljCRAjKHjcsbYcHJ65bSPOm8g2hZbRGE1lAcbpUCtrAVGM7qjdxvicO9QmFSZSp23XBH/Gb//xyWRA6c+yW69dn7kVYXoxxpxvFCB/uAGAT4C2eNYaeQ122lBIgI1mWIZDdkRqDIIqsQZBbDndphgHD4DV+ga+bdDp0bmERB6BhRapFlBtDsVUuQGCATBZt0SYyYa3YadTgtAU5o6W1gm8qG2Gu7N+Pc3b+wWgU+9vYv0j2PPYAX0pcRdVcQ5QbkHEwSex+FyAvOwyh0uwAUc+gPiDkxjASEijG9e328efpMXP/eb6wROHzk3h/QnS89iCdfeQZ5rRcRHwJLXGwlIGyx+sOEXOwXZiuYhyPnu097qyHPkSBByl5tk6IbEbKcsOnUrfD0scWkfK+RwFulM13n7EP1pA+U5n6TIGHPXgywn4dd0iD0y7FVUxjyvtTIIXXE7Q9hOPfdh635Lw4x5y8IjSmViZiSdCHpTzNuIMeStIql1WXg1spS8elQeoJSm1nIOIGIYtjc8MexowcJA+QOfHCSkYSREtY6cIiF6yScVJgYd2GiLqEsYp+rYaVD1Wao5nX0ZQ4mr0Iyw1RkQByqURrCxaCagYgKVfFmtIpDymwVRBrOOTjb78hkRqwoQdJoIJUpoCOU7GQ0PjRKGbKvoXnFSguAPndPYiJPy332JDvVlI9bNxybUIzwxe6XiVEJy6t9UOUEUgtkvb1e4ZJyF9IGO8maExRWgNgk5MEmIismL3hDQneVvVIwJVMlqaDRV4drpOieMhnVtGijtlj5VihGKtl3xF9y69dbGSaqkR4MKM4ABggOD3LQxdPKscCbRy4Q81eQN8v5S+zP5vwV4TVgwEWxiUcDFsKA85z6wUBKPjYouCwFMX/mxARYLnDIprtjzkHFsU4VDgi8tu+89FS695UnoUqAS+v+vBWVS8gaDYiCnW7k6kDchcgQnCHvYPS66fjsKxAT1xxQ0/k5kBfvCNJZ7ooIpxJYy2DntRiwFoLPj6yneQYh2F7s3EG5RCya4kmlBfFfmuYYVGrhlG1aj/zVj5qbm/0Okhy0kMj4y+qk58VUTvlzOeOB4E3mDJws2GnLYBVpGNYX/mBoDS0ZCHI4Y6CSBDbSmKYnYNFJNxS+HwufwOCtMPNnR9ECuxTONZA2+iB6yvCFBQUOUVJwdXYisCkqOa/Ub3xpHbggMfe1GNJ/nV71gPI50U/bwWfqyZiJzJExrzJnRMqm9RBzC/aiz0QFytZvbu4bycfDlDtDsWyk30D+36zzRwT+n5v5KozE3kzwYMyM2eycJdH03CsnEbGJzklHbEFogrDFnsmILLTWMHnToRglJQjr/MelEiWQUQ9mbfp2nLvP59piL7bFJAbr5Al3fJXmPPMHLM/7EGcGOTsYCxycuag5EiKaXmH+w+aqE8aDgM9v5Jg2J9+4fvCSbPKyijKtO6dBcomrRMQ5B2xNOAfiHHbVTITq5MFkNFpGkFL7jc3FbnzOZmo2xQljHKqTEpKkBwgvLgYJ2ZSvNAmEZpmmgLT+C8zgLXOBiiqhiqxQ8TIg8NHAsm4ILlySsLU6JnZNwjYzt8b9ew8vjD3SL9e22vi+mz9Pv3r2D4CueqcT2O3kd5D0piJ/MwxzGYhmyjF3GDLGIM8tVFzymzhvZCBdrIUx0gsW7tdeEiBudtngnpcKkRSo8vGQPcWiDHaLWI6SRQTm3aFaHVp0481Td8J9R7UnZX3bAsLAsr/uoqPp77VXsNxUmV/Mux/Jf4k1Slw3bo1HYJMzODiIcgnEi5LlEKUSkBfslWwv/Q2zGWEJsENcciEcW46Sv08C2tqmX8n7QwiyRuAs+BnrzcCzJ1zZ1nuurSc3sHYfn/sDmv3MHfi7WQylrA/bkGma4DlZHxZEpJrhHO/pdz4dWVhOP+5sp90I63+43UoSiEWElP1I7LJgp6YCLCfQUA6ZZlBI0JNMxv6b7YpL9/2Ptt9vbT/BwfJ/383/j377/P+CTB1RpHwcOoljpH01QGropAzBXnwGBMlRpzQAQtjCLZaAhM6dr5A1bBEQl9Bbf6y1icZe096IW9//vTGzz8bMRAev6juuPIt+v/hhKORwNkVc6YLhcuHUIFbsnELTyxxLiDT4EFq8Izr69uzYFOUIlNUAy47iBK4u8JbJ2+H+Ey4Yc/trzE14sPZtd/HR9PiyZ4BYN8N5HJ/ixBbmFeEDndIcu+pohQ0v31oJEMeeGwaSw9EiwsbxVBy97bvxrXd+eEzurTE56cFLfOod36Y7H/8TnuxbAExU0EwwUs8grfChQM86FEaQQIsk0GOBqlLolj04YJNdcPmBXx7Te2pMT37wGr//hs/TLfP/iKrr9Q5G+LwABVE0iWuLFDHctj0kwBWKu03ZCfcc9rNxsZfGxUsMVo1dL/8w/eGVh4Gyg0hrIJsg0Rq5bcAJC1kp+ZMFGhwm4jz4FJLz4DnpyDofwmTiV1+E4putjjsRtcdOapNZcFp0IptsTpxe7GINn9zIBUmcGal0MyPV5UCsIFUM6k1RQYTp0zfEM0dfNa4UZFy9zGAd2+lns+iJxkLkcaNZS6DLiEjD1JiQwkElGpKzGjjLsD8LkQHAD86Hl7KZcjpQsNQmChymMbISiIiQUbPGwBPhZOyAIkghfdq0p+ePmunm2hiYTGDaxE2w6KTrx+XeGZcvNaAyH73tHLpo3k3IanWfwOQ8Fz9QZjotyVRl/VV0vhqGU5DZ74BmPoPghhnNVNowxq8EfJEZJxXlXI2qETFJD/um/d8VopLyxLuZzRFF3Th4011wzf7t0YmqFasyrgFhQGCHzvkC3fTiH5EJToNueF49WeqGa1jWgWY1XT8g8G+4SpGPEM5wZWKxFG6tWPRwz39IQNYyqK4SMi6/JwOlI8/EbPLm8ZH7fDqT4J0bvRH3tGm68UiuZ0cAwoDA3nT1yfTnxY/6Ihjumcibnq0A7z/wtfT8aWCQ0E1iC05/DoAwkvrWdveqRBVUG1Vfb8DGgunrg5IRRFcFRhBeV94cjx5/ecfsk4550cGauPEFR9CC3hcQJwJZ1jwSyJiLp4SvUffHBaU9o1HRrNBtt4PG2YS47kVXuoFa1TsV4+5uICVsqCZil823x9X7jt/jwWstZUcCAgvijFu/Tlc8cy8cquit17wlwC3NWSnYYvDkJmwt9PPfjbN9EF6nXwIlHaFerXkOBhtF0K6E3TfcEbcfcnZH7o2OfOnBu2GHXx9P8xbMx/J61VsJnoiDAYHbuA3QdYXtM24lIF0OGzMHo8TOEzbHX465rKP3REe//GAtf8slp9BDi/+GTNehSwms03ApRyEUdEU3uRfyBsr9PgduGY84guB+a2EUJwHPj8GMzQaW89aZ/8I3YyHEQiETEto2M9gtpxcnErANwGTNBLZc43WlzTFri3fhS+86o+P3Q8cLYLAmf+h336M5T/8eL74yH4JrI7p4wzsfgmJWH+Z3zDmngROWlECkOOGpn1i1uC3R0U9mijpmrOLkIZ8/wMxLRD5/hP9/KYqRMo8G8xIYA9HghKMIKilDyQTHb/QO/PSg9i9LHq1FDoDwGpI+9Nf/Tne89GesqL0CUUKzxyK3lHJMDR4jYrZclzez1waIVUdrxcJz/kkCTKYqpIbljjfMzSi0TyjyFHZsEdT7qdUcN3/QvldnYrrwnvXfgBuP/FbQ/5X0KQhkNRts12s+RH986c+eU993WfJJSuxj6GcBd9wTMhwZisQobnxj2PfD4WFm0uJmL5aLkpu0/nxESFLhuRmtVti6Zws8efRFQe9XsWhBMGugzW8873j6v96n4SYrwNSA1CIqVcAtWTmLLYziJMCZp5x+PhAZKnHWKTUp2BkQmCzbJGVsoKfi2Olvx9n7fyro/GqWKwhnDXX5rNu/RXMevwMv0zJYRXDM4eiz2oql+V7D6Y/fy+LE82dyMRJXvlvfM5H9OtwVKULZ9uCwTd+CSw8srvnJWBJ+AIS1XK1Drvv/6LYFf0YqaiiRQ1/Ag7WU4MhezpzbkghKUBOouRglV1gvnoqtJm6EPx35k6DjayHyIKy1ENbgS9965Un0x97HILIgwnUU4Yj8jLsra98M1MFIhocSti9tikdO6px04xERZP9NgjYPU5qbXXIoLVmyGDXmdyyzjyFH5BRiFaNhcjDFluO+jjpGwnz9mfFVleyM5LJb0ezx1rHjVQ4Klgm3XvGt2Jpqyf+dOIUGh4D5PNAsOPH/xlZBxByGsoFcJzAuwrTyRjhkg7fgvPd+Ouj1OmpUENw6Cm7wz86482y6/LG56LPLfLf4Wpb5hKZIdfkOT1wolfm+EQC4dZnvG5H5ZjLcx7STB1v4r7ZKfw1AQClCXG0yaafMaiy4byaLl1mx2GNooOKJOGSTt+Da9/5X0OdhKlMQ4DAFOPjn+8/5BN208P8A5cDEG9z+HdzMNc+gy2XfizCv14BIQlfKMGkKYTvbQuCaER4D1gH/92ALgXs+qqkToOopaEUfUEng+JDA0Z1ygt023hX3HPCNoMcjpMdBkCMkyMG3edOlp9CfFz+CqCyQc19HZn8WDpa930r6RBqVESjN4UoFdyduwfuvzS0H2KoGfjOYss4fHxQ8GPiGPJUSJCKYusM2U7fCE8deHPR3bYS9BtcGga6BkNb1kk1/egjNi5b4bDntuRUA6wuowIn1KKkYKTcpDcNLYGUw8HwVIocRArEuIXMCkejCsZvvhl/s8/+C7rZAb4JQWyDUwbc85KbP0P/OewzzsyWQZU5k4g6gnFsfg1zu8/DD+Odjgmew6vctkLAQIoYWFbxz2va447Cx0wVpLK5rAIRRWrV3XPNR+v2iv4FEHTAW0hGSJEGDM+rCeNVC8KxVjjx9Gf/pyrqw2aQN8eDxFwZdHQU9CUIeBSEPfsROl86ih6rzvBtNZXnoPbmS/AdSkKMoAv/52OaH4r/edVbQ01HS0yDoURL04Md87ubv0rXz78VT+YJmiq3PRZD9zWW4T4AniEcuMiirYTk2x75HchBGQJOC8C3IASvbu5aCmJquUW9WhWoBpBkkh2TjClLBeQaGMzia1YnMeGscKmo9zNp0V1x44L8H/Rxl/QwCH2WBD37cB3/1Rbr4pfsQ2xx53gBJgtKi2V6cFCaIMqrKwXJik3CexYkdb81IJaOBg+BknTYe5cwi60p8AZJOLTQE6tznwNlmkpEzKEVlNLgKCQp7bfQG3P7+c9r7pdpY3sOdWhD8cCU4Ar/f85qP072LHoYRfbwngLpF4hKkHK4scytrC0WqGbrkjQTuMsx9hRxcmwOCd5xCQ9Rj30EAAAV8SURBVHHuAJcmS84u5JnncMRcBV1ATti+ZzP89cSQbjwC6jSsWwRAGJb4RvbHG15yJL1UexkJt5FT1CR8bWRQkh1sERx3EurvZh0TITYW1ajNoxSy2fCGKc3JpoARqHB3FCVR08DG2RQctvO7cM47Ph50cWTVaZ3uFhZhncTWuh99+q4f0oVP3ool2SJAZkhU4huHwAmklvP5hGf+YfuAsrTtWaEpE5CJhMt7fW9EdJWAPospNAX7brYzZh8Y0o1bp01rf+cACGsvs1H5xVFzv0DXPnEPjGz0F/Sw01H4NvdMEWaZ7JX5BAf6UY7KrNb+IdTdAyxfjoh5CpiwJBN422ZvwH2HhLLktZdm638RAKH1Mh7WE95y+Sn0XO/f8bJZAsQCEcfoM+uLonIpffZjOw/KU8RdE0ENYIvydDxx8uygc228YGFx2nhxBk9t5gVH0lPZi4Ay/dEFCdLas0K384ikwUQxEYdutw9+usdngr6182Jx+nibzy9Mb5AETr39u3TtU3djWf4KSjKD4VCl7gYTDjsOVRoHpbkDEfcesJC5Aw3qTTnANTBQUMQpwkN1piInoLhNOuWwNoNvnw2NyEokFuiLuVU6dzxiJuomn4EG09Q7ZNrhuGmH4tKDPx/0bIxoclioMbJQg6f5rhs/RXe89CCQ1zwfAJdTc5qvZZZh5xDVectq1LsVRJq/+tOBTlTsg+CxJp2pSPreuJ74xUlAVBIQh0O5J2ZmUIm7kGZ9sOzrYJpzLktOuSz5LbjniJBPMNbUKwDCWFuxQfPd/poP0197/wYsXQ4kGlGiYXtrPjyJShdUzcJFTQYi3+G6vzUd//2fOAdWIwMSzF6sIDmTwEpI49CwzAAFoCsBlmdAF7dCy0F5js2nbI7njr0u6NUY1auwcGN04QZPe6vLjqWnX3kOkebs52bhFLc0rzPHoPlnSrKVrYLBJcevJQphM98Nqemq4PRjBcYbbciTwFRLBqhLrJdMxRHb7YVzd/9E0KkxrFNh8cbw4g2e+slzv05XPPc7pHkfiFJYw+eG2FO5+a3cbxUMthQG/vfViYBbnrBfgn/nMgOusvDp06w50mGSLeOtW74Zv93/u0GXxoEuhUUcB4s4+BXecf1H6Y+LHoUQOXJODfYtCtgRCO9AXNOjwsA9iR2K9cyXX5W7SpxljKzWQEV3YdMpG+Dxo0O68XhSoQAI42k1B73LDhcdT/OWvIRqJYW1Fp50RDSTmtbUodhEEYWycRDOospOSyWxUfcMvPiBK4LujEPdCYs6Dhd14JU+f++P6AdPXIs8z3035MFHhMEOxtWJQOdA3sXcbykmoIJZW+yO8/b5atCbcao3YWHH6cIOfq0P3vRfNPu536GO5dBKwtnUVx5rIREJCWsITgkYTn/UCoJ9BlnezGlQNZTybuw2/Y249bDgJxjv6hIAYbyv8KD32/W6s+gPCx/yTU/KRKgzTXxS8kcJzW4GsjB56o8FHgwaDew04d/w0ImXBT3pED0JC90hCz34Nbf5+Sx6ovYipxd4/0C11ououwSKFEyeQzWArSvT8dgZNwb96DD9CAveYQs+8Lqn33s2/erR3+MludAXTNncwEEiiSdhv63eiV++K9CXdaJqBEDoxFUf9M4n3fJlenzpAvQJwtY900M7tA7XhwAIHa4A4fWDBAZLIABC0IcggSCBVyUQACEoQ5BAkEAAhKADQQJBAv8qgWAhBK0IEggSCBZC0IEggSCBYCEEHQgSCBJYjQTCkSGoR5BAkEA4MgQdCBIIEghHhqADQQJBAuHIEHQgSCBIYE0kEHwIayKlcE2QQIdIIABChyx0eM0ggTWRQACENZFSuCZIoEMkEAChQxY6vGaQwJpI4P8H8j+zXQ/Z8x0AAAAASUVORK5CYII=;" vertex="1" parent="1">
          <mxGeometry x="510" y="290" width="40" height="40" as="geometry" />
        </mxCell>
        <mxCell id="x5Km6dhvppm58IAZ92xZ-1039" style="edgeStyle=orthogonalEdgeStyle;rounded=0;jumpStyle=arc;jumpSize=11;orthogonalLoop=1;jettySize=auto;html=1;exitX=0.5;exitY=1;exitDx=0;exitDy=0;entryX=0.5;entryY=0;entryDx=0;entryDy=0;startArrow=none;startFill=0;endArrow=classic;endFill=1;" edge="1" parent="1" source="x5Km6dhvppm58IAZ92xZ-1031" target="x5Km6dhvppm58IAZ92xZ-1036">
          <mxGeometry relative="1" as="geometry" />
        </mxCell>
        <mxCell id="x5Km6dhvppm58IAZ92xZ-1031" value="ArgoCD" style="rounded=1;whiteSpace=wrap;html=1;" vertex="1" parent="1">
          <mxGeometry x="620" y="170" width="120" height="60" as="geometry" />
        </mxCell>
        <mxCell id="x5Km6dhvppm58IAZ92xZ-1032" value="" style="shape=image;verticalLabelPosition=bottom;labelBackgroundColor=#ffffff;verticalAlign=top;aspect=fixed;imageAspect=0;image=https://argoproj.github.io/argo-cd/assets/logo.png;" vertex="1" parent="1">
          <mxGeometry x="720" y="205" width="40" height="40" as="geometry" />
        </mxCell>
        <mxCell id="x5Km6dhvppm58IAZ92xZ-1036" value="" style="rounded=1;whiteSpace=wrap;html=1;" vertex="1" parent="1">
          <mxGeometry x="620" y="310" width="120" height="60" as="geometry" />
        </mxCell>
        <mxCell id="x5Km6dhvppm58IAZ92xZ-1037" value="Managed Resources" style="rounded=1;whiteSpace=wrap;html=1;" vertex="1" parent="1">
          <mxGeometry x="630" y="320" width="120" height="60" as="geometry" />
        </mxCell>
      </root>
    </mxGraphModel>
  </diagram>
</mxfile>
